name rise30.9205peak61.366fall85.3838.mot
datacolumns 19
datarows 26
range 12.508292 12.549954
endheader
time	ground_force1_vx	ground_force1_vy	ground_force1_vz	ground_force1_px	ground_force1_py	ground_force1_pz	ground_force2_vx	ground_force2_vy	ground_force2_vz	ground_force2_px	ground_force2_py	ground_force2_pz	ground_torque1_x	ground_torque1_y	ground_torque1_z	ground_torque2_x	ground_torque2_y	ground_torque2_z	
12.508292	-1.374225	3.200117	-0.913939	0.000000	0.000000	0.000000	-46.700028	781.569756	-54.735304	0.125562	0.000000	-0.092878	0.000000	-0.355296	0.000000	0.000000	-20.363029	0.000000	
12.509955	-2.144171	6.544585	-1.521335	0.000000	0.000000	0.000000	-47.195886	779.218445	-54.404896	0.124858	0.000000	-0.092744	0.000000	-0.595396	0.000000	0.000000	-20.285419	0.000000	
12.511619	-3.002983	10.638548	-2.220355	0.000000	0.000000	0.000000	-47.713723	776.793667	-54.066021	0.124154	0.000000	-0.092608	0.000000	-0.872808	0.000000	0.000000	-20.211939	0.000000	
12.513301	-3.920889	15.453677	-2.993245	0.000000	0.000000	0.000000	-48.253381	774.293656	-53.718423	0.123450	0.000000	-0.092470	0.000000	-1.180905	0.000000	0.000000	-20.142573	0.000000	
12.514951	-4.861609	20.930409	-3.816825	0.000000	0.000000	0.000000	-48.814609	771.716504	-53.361831	0.122746	0.000000	-0.092330	0.000000	-1.510945	0.000000	0.000000	-20.077286	0.000000	
12.516616	-5.784699	26.982696	-4.663992	0.298924	0.000000	0.095623	-49.397059	769.060159	-52.995958	0.122042	0.000000	-0.092189	0.000000	-2.693687	0.000000	0.000000	-20.016019	0.000000	
12.518290	-6.648431	33.505550	-5.505701	0.308441	0.000000	0.096702	-50.000288	766.322435	-52.620502	0.121337	0.000000	-0.092046	0.000000	-3.250280	0.000000	0.000000	-19.958693	0.000000	
12.519954	-7.412881	40.384381	-6.313140	0.316772	0.000000	0.097645	-50.623749	763.501008	-52.235152	0.120633	0.000000	-0.091901	0.000000	-3.803038	0.000000	0.000000	-19.905206	0.000000	
12.521649	-8.042766	47.504765	-7.059835	0.324127	0.000000	0.098480	-51.266797	760.593428	-51.839584	0.119930	0.000000	-0.091755	0.000000	-4.334970	0.000000	0.000000	-19.855436	0.000000	
12.523292	-8.509709	54.761357	-7.723389	0.330672	0.000000	0.099226	-51.928681	757.597122	-51.433469	0.119226	0.000000	-0.091607	0.000000	-4.831136	0.000000	0.000000	-19.809240	0.000000	
12.524953	-8.793686	62.064956	-8.286695	0.336532	0.000000	0.099897	-52.608550	754.509401	-51.016470	0.118523	0.000000	-0.091457	0.000000	-5.279537	0.000000	0.000000	-19.766452	0.000000	
12.526628	-8.883611	69.347238	-8.738550	0.341809	0.000000	0.100506	-53.305445	751.327468	-50.588249	0.117821	0.000000	-0.091305	0.000000	-5.671629	0.000000	0.000000	-19.726886	0.000000	
12.528285	-8.777110	76.563009	-9.073704	0.346583	0.000000	0.101062	-54.018305	748.048427	-50.148465	0.117119	0.000000	-0.091152	0.000000	-6.002485	0.000000	0.000000	-19.690335	0.000000	
12.529956	-8.479616	83.690194	-9.292403	0.350922	0.000000	0.101573	-54.745965	744.669292	-49.696780	0.116418	0.000000	-0.090998	0.000000	-6.270635	0.000000	0.000000	-19.656573	0.000000	
12.531631	-8.002983	90.727906	-9.399573	0.354879	0.000000	0.102045	-55.487155	741.186995	-49.232861	0.115718	0.000000	-0.090842	0.000000	-6.477639	0.000000	0.000000	-19.625354	0.000000	
12.533298	-7.363815	97.693114	-9.403756	0.358500	0.000000	0.102483	-56.240504	737.598400	-48.756382	0.115018	0.000000	-0.090684	0.000000	-6.627491	0.000000	0.000000	-19.596412	0.000000	
12.534954	-6.581685	104.616411	-9.315930	0.361822	0.000000	0.102891	-57.004541	733.900315	-48.267027	0.114320	0.000000	-0.090525	0.000000	-6.725920	0.000000	0.000000	-19.569463	0.000000	
12.536620	-5.677424	111.537401	-9.148346	0.364878	0.000000	0.103273	-57.777695	730.089500	-47.764491	0.113624	0.000000	-0.090365	0.000000	-6.779669	0.000000	0.000000	-19.544207	0.000000	
12.538284	-4.671601	118.500143	-8.913457	0.367696	0.000000	0.103632	-58.558299	726.162683	-47.248488	0.112929	0.000000	-0.090202	0.000000	-6.795820	0.000000	0.000000	-19.520327	0.000000	
12.539951	-3.583279	125.549005	-8.623013	0.370299	0.000000	0.103970	-59.344593	722.116574	-46.718750	0.112236	0.000000	-0.090039	0.000000	-6.781206	0.000000	0.000000	-19.497487	0.000000	
12.541617	-2.429103	132.725180	-8.287372	0.372707	0.000000	0.104289	-60.134729	717.947879	-46.175028	0.111545	0.000000	-0.089874	0.000000	-6.741942	0.000000	0.000000	-19.475340	0.000000	
12.543295	-1.222727	140.064025	-7.915033	0.374938	0.000000	0.104592	-60.926769	713.653314	-45.617101	0.110856	0.000000	-0.089707	0.000000	-6.683100	0.000000	0.000000	-19.453524	0.000000	
12.544955	0.025431	147.593275	-7.512394	0.377008	0.000000	0.104879	-61.718697	709.229623	-45.044772	0.110171	0.000000	-0.089539	0.000000	-6.608519	0.000000	0.000000	-19.431664	0.000000	
12.546630	1.308149	155.332106	-7.083711	0.378930	0.000000	0.105152	-62.508419	704.673594	-44.457876	0.109488	0.000000	-0.089369	0.000000	-6.520740	0.000000	0.000000	-19.409372	0.000000	
12.548285	2.621134	163.290976	-6.631223	0.380717	0.000000	0.105413	-63.293770	699.982077	-43.856280	0.108809	0.000000	-0.089198	0.000000	-6.421060	0.000000	0.000000	-19.386252	0.000000	
12.549954	3.962577	171.472099	-6.155406	0.382377	0.000000	0.105662	-64.072515	695.152002	-43.239883	0.108134	0.000000	-0.089026	0.000000	-6.309665	0.000000	0.000000	-19.361898	0.000000	
